  999
file created by SolveSpace
  0
SECTION
  2
HEADER
  9
$ACADVER
  1
AC1006
  9
$ANGDIR
  70
0
  9
$AUNITS
  70
0
  9
$AUPREC
  70
0
  9
$INSBASE
  10
0.0
  20
0.0
  30
0.0
  9
$EXTMIN
  10
0.0
  20
0.0
  9
$EXTMAX
  10
10000.0
  20
10000.0
  0
ENDSEC
  0
SECTION
  2
ENTITIES
  0
LINE
  8
0
  10
1.293645
  20
0.869031
  30
0.000000
  11
-2.406355
  21
0.869031
  31
0.000000
  0
LINE
  8
0
  10
-2.406355
  20
0.869031
  30
0.000000
  11
-2.406355
  21
0.369031
  31
0.000000
  0
LINE
  8
0
  10
-2.406355
  20
0.369031
  30
0.000000
  11
-2.156355
  21
0.369031
  31
0.000000
  0
LINE
  8
0
  10
-2.156355
  20
0.369031
  30
0.000000
  11
-2.156355
  21
-0.150969
  31
0.000000
  0
LINE
  8
0
  10
-2.156355
  20
-0.150969
  30
0.000000
  11
-2.406355
  21
-0.150969
  31
0.000000
  0
LINE
  8
0
  10
-2.406355
  20
-0.150969
  30
0.000000
  11
-2.406355
  21
-1.260969
  31
0.000000
  0
ARC
  8
0
  10
-2.156355
  20
-1.260969
  30
0.000000
  40
0.250000
  50
180.000000
  51
-90.000000
  0
LINE
  8
0
  10
-2.156355
  20
-1.510969
  30
0.000000
  11
-1.366657
  21
-1.510969
  31
0.000000
  0
ARC
  8
0
  10
-1.366657
  20
-1.171734
  30
0.000000
  40
0.339235
  50
-90.000000
  51
-8.860000
  0
LINE
  8
0
  10
-1.031470
  20
-1.223984
  30
0.000000
  11
-0.881355
  21
-0.260969
  31
0.000000
  0
LINE
  8
0
  10
-0.881355
  20
-0.260969
  30
0.000000
  11
-0.231355
  21
-0.260969
  31
0.000000
  0
LINE
  8
0
  10
-0.231355
  20
-0.260969
  30
0.000000
  11
-0.081239
  21
-1.223984
  31
0.000000
  0
ARC
  8
0
  10
0.253948
  20
-1.171734
  30
0.000000
  40
0.339235
  50
-171.140000
  51
-90.000000
  0
LINE
  8
0
  10
0.253948
  20
-1.510969
  30
0.000000
  11
1.043645
  21
-1.510969
  31
0.000000
  0
ARC
  8
0
  10
1.043645
  20
-1.260969
  30
0.000000
  40
0.250000
  50
-90.000000
  51
0.000000
  0
LINE
  8
0
  10
1.293645
  20
-1.260969
  30
0.000000
  11
1.293645
  21
-0.150969
  31
0.000000
  0
LINE
  8
0
  10
1.293645
  20
-0.150969
  30
0.000000
  11
1.043645
  21
-0.150969
  31
0.000000
  0
LINE
  8
0
  10
1.043645
  20
-0.150969
  30
0.000000
  11
1.043645
  21
0.369031
  31
0.000000
  0
LINE
  8
0
  10
1.043645
  20
0.369031
  30
0.000000
  11
1.293645
  21
0.369031
  31
0.000000
  0
LINE
  8
0
  10
1.293645
  20
0.369031
  30
0.000000
  11
1.293645
  21
0.869031
  31
0.000000
  0
LINE
  8
0
  10
1.153645
  20
0.965031
  30
0.000000
  11
-2.266355
  21
0.965031
  31
0.000000
  0
LINE
  8
0
  10
-2.266355
  20
0.965031
  30
0.000000
  11
-2.266355
  21
-1.250969
  31
0.000000
  0
ARC
  8
0
  10
-2.146355
  20
-1.250969
  30
0.000000
  40
0.120000
  50
180.000000
  51
-90.000000
  0
LINE
  8
0
  10
-2.146355
  20
-1.370969
  30
0.000000
  11
1.033645
  21
-1.370969
  31
0.000000
  0
ARC
  8
0
  10
1.033645
  20
-1.250969
  30
0.000000
  40
0.120000
  50
-90.000000
  51
0.000000
  0
LINE
  8
0
  10
1.153645
  20
-1.250969
  30
0.000000
  11
1.153645
  21
0.965031
  31
0.000000
  0
LINE
  8
0
  10
1.035317
  20
-1.252641
  30
0.000000
  11
-2.148026
  21
-1.252641
  31
0.000000
  0
LINE
  8
0
  10
-2.148026
  20
-1.252641
  30
0.000000
  11
-2.148026
  21
0.965031
  31
0.000000
  0
LINE
  8
0
  10
-2.148026
  20
0.965031
  30
0.000000
  11
1.035317
  21
0.965031
  31
0.000000
  0
LINE
  8
0
  10
1.035317
  20
0.965031
  30
0.000000
  11
1.035317
  21
-1.252641
  31
0.000000
  0
LINE
  8
0
  10
-1.979539
  20
0.965031
  30
0.000000
  11
-2.266355
  21
0.965031
  31
0.000000
  0
LINE
  8
0
  10
-2.266355
  20
0.965031
  30
0.000000
  11
-2.266355
  21
-1.250969
  31
0.000000
  0
ARC
  8
0
  10
-2.146355
  20
-1.250969
  30
0.000000
  40
0.120000
  50
180.000000
  51
-90.000000
  0
LINE
  8
0
  10
-2.146355
  20
-1.370969
  30
0.000000
  11
1.033645
  21
-1.370969
  31
0.000000
  0
ARC
  8
0
  10
1.033645
  20
-1.250969
  30
0.000000
  40
0.120000
  50
-90.000000
  51
0.000000
  0
LINE
  8
0
  10
1.153645
  20
-1.250969
  30
0.000000
  11
1.153645
  21
0.965031
  31
0.000000
  0
LINE
  8
0
  10
1.153645
  20
0.965031
  30
0.000000
  11
0.866830
  21
0.965031
  31
0.000000
  0
LINE
  8
0
  10
0.866830
  20
0.965031
  30
0.000000
  11
0.866830
  21
-1.084154
  31
0.000000
  0
LINE
  8
0
  10
0.866830
  20
-1.084154
  30
0.000000
  11
-1.979539
  21
-1.084154
  31
0.000000
  0
LINE
  8
0
  10
-1.979539
  20
-1.084154
  30
0.000000
  11
-1.979539
  21
0.965031
  31
0.000000
  0
ENDSEC
  0
EOF
